<?xml version="1.0" encoding="UTF-8" standalone="no"?>
<!-- Created with Inkscape (http://www.inkscape.org/) -->

<svg
   width="200mm"
   height="200mm"
   viewBox="0 0 200 200"
   version="1.1"
   id="svg5"
   inkscape:version="1.1.1 (3bf5ae0d25, 2021-09-20)"
   sodipodi:docname="logo_v2.svg"
   inkscape:export-filename="E:\Dropbox\Z - Workspace\Cab Cal Webside\logo\logo_v2.2.png"
   inkscape:export-xdpi="609.60004"
   inkscape:export-ydpi="609.60004"
   xmlns:inkscape="http://www.inkscape.org/namespaces/inkscape"
   xmlns:sodipodi="http://sodipodi.sourceforge.net/DTD/sodipodi-0.dtd"
   xmlns:xlink="http://www.w3.org/1999/xlink"
   xmlns="http://www.w3.org/2000/svg"
   xmlns:svg="http://www.w3.org/2000/svg">
  <sodipodi:namedview
     id="namedview7"
     pagecolor="#ffffff"
     bordercolor="#666666"
     borderopacity="1.0"
     inkscape:pageshadow="2"
     inkscape:pageopacity="0.0"
     inkscape:pagecheckerboard="0"
     inkscape:document-units="mm"
     showgrid="false"
     inkscape:snap-object-midpoints="true"
     inkscape:zoom="1.4142136"
     inkscape:cx="340.47192"
     inkscape:cy="391.3836"
     inkscape:window-width="1858"
     inkscape:window-height="1057"
     inkscape:window-x="-8"
     inkscape:window-y="-8"
     inkscape:window-maximized="1"
     inkscape:current-layer="layer4"
     showguides="true"
     inkscape:guide-bbox="true"
     inkscape:lockguides="false"
     inkscape:snap-global="true">
    <sodipodi:guide
       position="-74.612499,171.62344"
       orientation="0,-1"
       id="guide25952" />
  </sodipodi:namedview>
  <defs
     id="defs2">
    <inkscape:path-effect
       effect="lattice2"
       gridpoint0="3.5527137e-15,-7.4"
       gridpoint1="60,-7.4"
       gridpoint2="0,12.5"
       gridpoint3="60,12.5"
       gridpoint4="15,0"
       gridpoint5="45,0"
       gridpoint6="15,15"
       gridpoint7="45,15"
       gridpoint8x9="30,7.5"
       gridpoint10x11="30,15"
       gridpoint12="0,3.75"
       gridpoint13="60,3.75"
       gridpoint14="0,11.25"
       gridpoint15="60,11.25"
       gridpoint16="15,3.75"
       gridpoint17="45,3.75"
       gridpoint18="15,11.25"
       gridpoint19="45,11.25"
       gridpoint20x21="30,3.75"
       gridpoint22x23="30,11.25"
       gridpoint24x26="0,7.5"
       gridpoint25x27="60,7.5"
       gridpoint28x30="15,7.5"
       gridpoint29x31="45,7.5"
       gridpoint32x33x34x35="30,7.5"
       id="path-effect6186"
       is_visible="true"
       lpeversion="1"
       horizontal_mirror="false"
       vertical_mirror="true"
       perimetral="true"
       live_update="true" />
    <inkscape:path-effect
       effect="lattice2"
       gridpoint0="18.637605,28.378413"
       gridpoint1="78.631391,28.378413"
       gridpoint2="18.634239,41.537842"
       gridpoint3="78.634757,41.537842"
       gridpoint4="33.634509,31.302481"
       gridpoint5="63.634487,31.302481"
       gridpoint6="33.634509,42.999959"
       gridpoint7="63.634487,42.999959"
       gridpoint8x9="48.62546,34.228795"
       gridpoint10x11="48.634498,42.999959"
       gridpoint12="18.634521,34.22685"
       gridpoint13="78.634475,34.22685"
       gridpoint14="18.528824,40.028683"
       gridpoint15="78.740172,40.028683"
       gridpoint16="33.63451,34.22685"
       gridpoint17="63.634486,34.22685"
       gridpoint18="33.63451,40.07559"
       gridpoint19="63.634486,40.07559"
       gridpoint20x21="48.634498,34.22685"
       gridpoint22x23="48.634498,40.07559"
       gridpoint24x26="18.634521,37.15122"
       gridpoint25x27="78.634475,37.15122"
       gridpoint28x30="33.63451,37.15122"
       gridpoint29x31="63.634486,37.15122"
       gridpoint32x33x34x35="48.634498,37.15122"
       id="path-effect6005"
       is_visible="true"
       lpeversion="1"
       horizontal_mirror="false"
       vertical_mirror="true"
       perimetral="true"
       live_update="true" />
    <inkscape:path-effect
       effect="lattice2"
       gridpoint0="18.637605,28.378413"
       gridpoint1="78.631391,28.378413"
       gridpoint2="18.633957,40.075726"
       gridpoint3="78.635039,40.075726"
       gridpoint4="33.634509,31.302481"
       gridpoint5="63.634487,31.302481"
       gridpoint6="33.634509,42.999959"
       gridpoint7="63.634487,42.999959"
       gridpoint8x9="48.62546,34.228795"
       gridpoint10x11="48.633037,45.927032"
       gridpoint12="18.634521,34.22685"
       gridpoint13="78.634475,34.22685"
       gridpoint14="18.634521,40.07559"
       gridpoint15="78.634475,40.07559"
       gridpoint16="33.63451,34.22685"
       gridpoint17="63.634486,34.22685"
       gridpoint18="33.63451,40.07559"
       gridpoint19="63.634486,40.07559"
       gridpoint20x21="48.634498,34.22685"
       gridpoint22x23="48.634498,40.07559"
       gridpoint24x26="18.634521,37.15122"
       gridpoint25x27="78.634475,37.15122"
       gridpoint28x30="33.63451,37.15122"
       gridpoint29x31="63.634486,37.15122"
       gridpoint32x33x34x35="48.634498,37.15122"
       id="path-effect3905"
       is_visible="true"
       lpeversion="1"
       horizontal_mirror="false"
       vertical_mirror="true"
       perimetral="true"
       live_update="true" />
    <inkscape:path-effect
       effect="perspective-envelope"
       up_left_point="5.63,1.4511884"
       up_right_point="65.628874,1.4511884"
       down_left_point="5.6288745,31.451188"
       down_right_point="65.628874,31.451188"
       id="path-effect3954"
       is_visible="true"
       lpeversion="1"
       deform_type="perspective"
       horizontal_mirror="false"
       vertical_mirror="false"
       overflow_perspective="false" />
  </defs>
  <g
     inkscape:groupmode="layer"
     id="layer4"
     inkscape:label="Background"
     style="display:inline">
    <rect
       style="display:inline;fill:#eff1ff;fill-opacity:1;fill-rule:evenodd;stroke:none;stroke-width:0.499999;stroke-opacity:1"
       id="rect38310"
       width="90"
       height="85"
       x="55.075001"
       y="57.483463" />
  </g>
  <g
     inkscape:label="Cab's"
     inkscape:groupmode="layer"
     id="layer1"
     style="display:none">
    <text
       xml:space="preserve"
       style="font-style:normal;font-variant:normal;font-weight:normal;font-stretch:normal;font-size:21.6148px;line-height:1.25;font-family:Arial;-inkscape-font-specification:Arial;display:inline;fill:#000000;fill-opacity:1;stroke:none;stroke-width:0.540372"
       x="68.665329"
       y="107.20405"
       id="text1046"><tspan
         sodipodi:role="line"
         style="font-style:normal;font-variant:normal;font-weight:normal;font-stretch:normal;font-family:Arial;-inkscape-font-specification:Arial;stroke-width:0.540372"
         x="68.665329"
         y="107.20405"
         id="tspan1048">CAB'S</tspan></text>
    <path
       style="display:inline;fill:#000000;fill-opacity:1;stroke:none;stroke-width:0.5;stroke-linecap:butt;stroke-linejoin:miter;stroke-miterlimit:4;stroke-dasharray:none;stroke-opacity:1"
       d="m 100.13238,70.467894 -24.999997,17 24.999997,-20 25,20"
       id="path26536"
       sodipodi:nodetypes="cccc" />
  </g>
  <g
     inkscape:groupmode="layer"
     id="layer3"
     inkscape:label="Corner #1"
     style="display:none">
    <g
       id="g5760">
      <text
         xml:space="preserve"
         style="font-style:normal;font-variant:normal;font-weight:normal;font-stretch:normal;font-size:15.9274px;line-height:1.25;font-family:Bahnschrift;-inkscape-font-specification:Bahnschrift;fill:#000000;fill-opacity:1;stroke:none;stroke-width:0.398185"
         x="120.59649"
         y="57.170311"
         id="text10711"
         transform="rotate(36)"><tspan
           sodipodi:role="line"
           id="tspan10709"
           style="font-style:normal;font-variant:normal;font-weight:normal;font-stretch:normal;font-family:Bahnschrift;-inkscape-font-specification:Bahnschrift;stroke-width:0.398185"
           x="120.59649"
           y="57.170311">C</tspan></text>
      <text
         xml:space="preserve"
         style="font-style:normal;font-variant:normal;font-weight:normal;font-stretch:normal;font-size:15.8453px;line-height:1.25;font-family:Bahnschrift;-inkscape-font-specification:Bahnschrift;fill:#000000;fill-opacity:1;stroke:none;stroke-width:0.396132"
         x="118.68332"
         y="83.553001"
         id="text11307"
         transform="rotate(24)"><tspan
           sodipodi:role="line"
           style="font-style:normal;font-variant:normal;font-weight:normal;font-stretch:normal;font-family:Bahnschrift;-inkscape-font-specification:Bahnschrift;stroke-width:0.396132"
           x="118.68332"
           y="83.553001"
           id="tspan11309">O</tspan></text>
      <text
         xml:space="preserve"
         style="font-style:normal;font-variant:normal;font-weight:normal;font-stretch:normal;font-size:16.505px;line-height:1.25;font-family:Bahnschrift;-inkscape-font-specification:Bahnschrift;fill:#000000;fill-opacity:1;stroke:none;stroke-width:0.412626"
         x="111.56725"
         y="109.38194"
         id="text12721"
         transform="rotate(12)"><tspan
           sodipodi:role="line"
           style="font-style:normal;font-variant:normal;font-weight:normal;font-stretch:normal;font-family:Bahnschrift;-inkscape-font-specification:Bahnschrift;stroke-width:0.412626"
           x="111.56725"
           y="109.38194"
           id="tspan12723">R</tspan></text>
      <text
         xml:space="preserve"
         style="font-style:normal;font-variant:normal;font-weight:normal;font-stretch:normal;font-size:16.505px;line-height:1.25;font-family:Bahnschrift;-inkscape-font-specification:Bahnschrift;fill:#000000;fill-opacity:1;stroke:none;stroke-width:0.412626"
         x="72.148979"
         y="151.1451"
         id="text14027"
         transform="rotate(-12)"><tspan
           sodipodi:role="line"
           id="tspan14025"
           style="font-style:normal;font-variant:normal;font-weight:normal;font-stretch:normal;font-family:Bahnschrift;-inkscape-font-specification:Bahnschrift;stroke-width:0.412626"
           x="72.148979"
           y="151.1451">N</tspan></text>
      <text
         xml:space="preserve"
         style="font-style:normal;font-variant:normal;font-weight:normal;font-stretch:normal;font-size:16.505px;line-height:1.25;font-family:Bahnschrift;-inkscape-font-specification:Bahnschrift;fill:#000000;fill-opacity:1;stroke:none;stroke-width:0.412626"
         x="53.661942"
         y="165.56801"
         id="text14673"
         transform="rotate(-24)"><tspan
           sodipodi:role="line"
           id="tspan14671"
           style="font-style:normal;font-variant:normal;font-weight:normal;font-stretch:normal;font-family:Bahnschrift;-inkscape-font-specification:Bahnschrift;stroke-width:0.412626"
           x="53.661942"
           y="165.56801">E</tspan></text>
      <text
         xml:space="preserve"
         style="font-style:normal;font-variant:normal;font-weight:normal;font-stretch:normal;font-size:16.505px;line-height:1.25;font-family:Bahnschrift;-inkscape-font-specification:Bahnschrift;fill:#000000;fill-opacity:1;stroke:none;stroke-width:0.412626"
         x="31.386976"
         y="175.70064"
         id="text15127"
         transform="rotate(-36)"><tspan
           sodipodi:role="line"
           id="tspan15125"
           style="font-style:normal;font-variant:normal;font-weight:normal;font-stretch:normal;font-family:Bahnschrift;-inkscape-font-specification:Bahnschrift;stroke-width:0.412626"
           x="31.386976"
           y="175.70064">R</tspan><tspan
           sodipodi:role="line"
           style="font-style:normal;font-variant:normal;font-weight:normal;font-stretch:normal;font-family:Bahnschrift;-inkscape-font-specification:Bahnschrift;stroke-width:0.412626"
           x="31.386976"
           y="196.33189"
           id="tspan15129" /></text>
    </g>
  </g>
  <g
     inkscape:groupmode="layer"
     id="layer5"
     inkscape:label="Corner #2"
     style="display:none">
    <path
       id="path905"
       style="font-size:16.1429px;line-height:1.25;font-family:Bahnschrift;-inkscape-font-specification:Bahnschrift;display:inline;fill:#000000;fill-opacity:1;stroke-width:0.403574"
       d="m 22.625024,28.558709 c -0.793358,-0.06664 -1.491591,0.06882 -2.096026,0.399242 -0.598908,0.325263 -1.064358,0.815098 -1.395466,1.457056 -0.331216,0.642168 -0.496996,1.392432 -0.497262,2.243706 0.0097,1.058537 -9.81e-4,3.144983 -9.81e-4,3.144983 -2.65e-4,0.851272 0.165052,1.598989 0.495906,2.249497 0.330964,0.65073 0.795742,1.159182 1.394799,1.538079 0.604008,0.378943 1.30306,0.598165 2.096334,0.664797 0.651841,0.05475 1.253043,-0.02403 1.805076,-0.242013 0.551962,-0.223204 1.014283,-0.565852 1.387582,-1.034378 0.373154,-0.468342 0.625182,-1.031573 0.756628,-1.692311 -0.539636,-0.06112 -1.647161,-0.204654 -1.647161,-0.204654 -0.0999,0.372114 -0.267947,0.683745 -0.504454,0.93631 -0.231276,0.253171 -0.504804,0.434585 -0.820138,0.545303 -0.310066,0.111232 -0.6356,0.151552 -0.977171,0.122861 -0.467646,-0.03928 -0.877231,-0.178343 -1.229222,-0.420935 -0.352038,-0.247877 -0.625452,-0.579425 -0.819795,-0.998263 -0.194302,-0.418753 -0.291184,-0.894914 -0.29103,-1.4309 0.0103,-1.038144 9.04e-4,-3.144986 9.04e-4,-3.144986 1.55e-4,-0.541243 0.09731,-1.010876 0.291811,-1.406617 0.194467,-0.400914 0.46818,-0.705571 0.820187,-0.909612 0.35205,-0.204069 0.76158,-0.288074 1.229118,-0.248799 0.336186,0.02824 0.661692,0.134886 0.976826,0.318432 0.315108,0.18354 0.588653,0.430785 0.819692,0.739869 0.236314,0.304432 0.404299,0.641514 0.50403,1.010319 0.558634,0.07468 1.646857,0.204632 1.646857,0.204632 C 26.440843,31.705326 26.188857,31.075653 25.81602,30.514068 25.448577,29.953351 24.988328,29.500439 24.437028,29.161376 23.885796,28.817099 23.2814,28.613847 22.625024,28.558709 Z m 9.706105,1.273199 c -0.798538,-0.119379 -1.501839,-0.04972 -2.111304,0.211477 -0.609263,0.25586 -1.081553,0.680484 -1.417761,1.272831 -0.3309,0.587764 -0.496412,1.302498 -0.496427,2.143277 0.01,1.094102 -7.1e-5,3.247364 -7.1e-5,3.247364 -2.2e-5,0.840781 0.165484,1.605031 0.496492,2.29421 0.336211,0.68458 0.808924,1.24835 1.418408,1.691397 0.609279,0.437648 1.314007,0.7178 2.112444,0.837134 0.798923,0.119407 1.50263,0.04944 2.112292,-0.210142 0.60944,-0.26474 1.079389,-0.693973 1.410218,-1.284794 0.336073,-0.59535 0.503852,-1.314021 0.503582,-2.154824 0.0097,-1.07137 -0.001,-3.247448 -0.001,-3.247448 -2.7e-4,-0.840801 -0.1685,-1.601149 -0.504853,-2.282756 -0.331098,-0.686133 -0.801168,-1.245256 -1.410489,-1.679404 -0.609099,-0.439242 -1.313433,-0.719015 -2.111487,-0.838322 z m 6.468108,0.988874 c 0.01158,3.8349 0.0047,11.468983 0.0047,11.468983 0.546441,0.07238 1.607592,0.171538 1.607592,0.171538 0.0092,-1.605323 -0.0023,-4.847967 -0.0023,-4.847967 0.809071,0.09005 2.393761,0.206417 2.393761,0.206417 0.826198,1.686529 2.448427,4.9908 2.448427,4.9908 0.64631,0.03808 1.907378,0.05978 1.907378,0.05978 -0.87214,-1.67916 -2.645642,-5.111561 -2.645642,-5.111561 0.199936,-0.05244 0.390268,-0.123257 0.569784,-0.213397 0.504158,-0.250272 0.895173,-0.623358 1.173256,-1.113897 0.278165,-0.495951 0.417343,-1.073507 0.416934,-1.730397 -4.08e-4,-0.65689 -0.140306,-1.238275 -0.419072,-1.746051 -0.273608,-0.513042 -0.662207,-0.914568 -1.16681,-1.210783 -0.499313,-0.295957 -1.07981,-0.463415 -1.741778,-0.507487 -0.970024,-0.05458 -2.93934,-0.244489 -2.93934,-0.244489 -0.535932,-0.05302 -1.071059,-0.110312 -1.606966,-0.171494 z m 31.475932,-1.65913 c 0.01144,3.832269 0.0043,11.468561 0.0043,11.468561 0.546457,-0.06376 1.60779,-0.20627 1.60779,-0.20627 0.0094,-1.607447 -0.0017,-4.847749 -0.0017,-4.847749 0.808176,-0.08758 2.393979,-0.254424 2.393979,-0.254424 0.826219,1.552089 2.448015,4.679987 2.448015,4.679987 0.645949,-0.01906 1.907433,-0.04437 1.907433,-0.04437 -0.871621,-1.662389 -2.644342,-4.933142 -2.644342,-4.933142 0.199984,-0.07493 0.389868,-0.165226 0.569431,-0.272231 0.504504,-0.297758 0.895832,-0.694892 1.174282,-1.200491 0.27835,-0.510682 0.417204,-1.092371 0.417002,-1.749219 -2.02e-4,-0.656847 -0.139411,-1.234025 -0.418061,-1.727007 -0.273303,-0.498178 -0.66223,-0.875969 -1.166704,-1.124804 -0.499396,-0.249177 -1.080018,-0.349781 -1.742307,-0.29616 -0.970465,0.08857 -2.941012,0.301098 -2.941012,0.301098 -0.535746,0.06467 -1.072353,0.133929 -1.608122,0.206218 z m -20.955937,2.25834 c 0.0125,3.828534 0.0075,11.453581 0.0075,11.453581 0.540883,0.0051 1.592195,-0.03076 1.592195,-0.03076 0.0081,-2.801162 -0.0056,-8.430914 -0.0056,-8.430914 1.811952,2.767362 5.405025,8.093247 5.405025,8.093247 0.501362,-0.03684 1.474431,-0.148708 1.474431,-0.148708 0.0076,-3.809676 -0.0072,-11.453497 -0.0072,-11.453497 -0.521609,0.06634 -1.592994,0.159648 -1.592994,0.159648 0.01185,2.862999 0.0055,8.560049 0.0055,8.560049 -1.797256,-2.678454 -5.420653,-8.229604 -5.420653,-8.229604 -0.48624,0.01356 -0.972032,0.02256 -1.458243,0.02696 z m 11.304664,-0.85798 c 0.01223,3.829841 0.0067,11.461163 0.0067,11.461163 0.545824,-0.06156 1.607799,-0.218785 1.607799,-0.218785 1.929324,-0.26121 5.754716,-0.850035 5.754716,-0.850035 0.0098,-0.501278 -6.45e-4,-1.529119 -6.45e-4,-1.529119 -1.908681,0.290483 -5.754912,0.850007 -5.754912,0.850007 0.0094,-1.124066 -0.0019,-3.397302 -0.0019,-3.397302 1.639702,-0.220451 4.88804,-0.721472 4.88804,-0.721472 0.0098,-0.5013 -6.75e-4,-1.52912 -6.75e-4,-1.52912 -1.619726,0.251512 -4.888207,0.721448 -4.888207,0.721448 0.0094,-1.150426 -0.0019,-3.476367 -0.0019,-3.476367 1.929732,-0.261152 5.755991,-0.849849 5.755991,-0.849849 0.0098,-0.501277 -6.45e-4,-1.529118 -6.45e-4,-1.529118 -1.909101,0.290421 -5.756187,0.84982 -5.756187,0.84982 -0.536487,0.07538 -1.071692,0.14843 -1.608163,0.218729 z M 32.33137,31.416339 c 0.47266,0.07066 0.887694,0.239699 1.244856,0.507469 0.362456,0.263317 0.640992,0.605604 0.835436,1.027609 0.199692,0.417502 0.299291,0.883747 0.299422,1.398734 0.01028,1.130986 8.53e-4,3.358023 8.53e-4,3.358023 1.31e-4,0.514987 -0.09925,0.955574 -0.298806,1.321058 -0.194305,0.360983 -0.472788,0.622901 -0.835279,0.785225 -0.357282,0.157862 -0.77226,0.201398 -1.245183,0.130713 -0.472824,-0.07067 -0.890528,-0.238597 -1.253028,-0.503206 -0.35729,-0.269102 -0.635887,-0.612968 -0.835547,-1.031625 -0.194419,-0.423151 -0.291962,-0.892297 -0.291987,-1.407276 0.0099,-1.10806 -1.64e-4,-3.357971 -1.64e-4,-3.357971 -2.5e-5,-0.514979 0.09746,-0.952653 0.291779,-1.312484 0.199583,-0.364324 0.478,-0.624677 0.835148,-0.781227 0.362442,-0.161037 0.779744,-0.205718 1.2525,-0.135042 z m 8.075549,1.105105 c 1.01099,0.110022 3.002498,0.24867 3.002498,0.24867 0.309971,0.02041 0.580497,0.110041 0.811759,0.270162 0.236516,0.160416 0.417615,0.379624 0.543885,0.659161 0.131501,0.2745 0.197705,0.587639 0.197912,0.939731 2.08e-4,0.352093 -0.06563,0.661687 -0.196817,0.928461 -0.125922,0.261744 -0.306859,0.460181 -0.543187,0.594055 -0.236334,0.133874 -0.50686,0.191229 -0.811575,0.171169 -0.991165,-0.05525 -3.002805,-0.24869 -3.002805,-0.24869 z m 31.4769,-2.036911 c 1.011594,-0.112113 3.00401,-0.306181 3.00401,-0.306181 0.310067,-0.02478 0.580725,0.02955 0.811995,0.161542 0.236512,0.131645 0.417686,0.331421 0.54387,0.597699 0.13146,0.260779 0.197073,0.567672 0.197179,0.919742 1.06e-4,0.352072 -0.06532,0.667874 -0.196615,0.948335 -0.126066,0.274973 -0.307019,0.492814 -0.543486,0.655445 -0.236448,0.162616 -0.507025,0.255412 -0.811845,0.279771 -0.991446,0.08923 -3.003879,0.306205 -3.003879,0.306205 z"
       inkscape:path-effect="#path-effect3905"
       inkscape:original-d="m 22.622907,31.302481 c -0.793482,0 -1.492204,0.178557 -2.096512,0.535884 -0.599053,0.352076 -1.064209,0.851239 -1.395264,1.497584 -0.331056,0.646348 -0.49661,1.395606 -0.49661,2.246892 v 3.145028 c 0,0.851284 0.165554,1.600028 0.49661,2.246373 0.331055,0.646348 0.796211,1.145509 1.395264,1.497584 0.604307,0.352076 1.30303,0.528133 2.096512,0.528133 0.651602,0 1.253299,-0.139555 1.805058,-0.418063 0.551759,-0.283761 1.014418,-0.682885 1.387512,-1.197859 0.373095,-0.514974 0.625172,-1.111679 0.756544,-1.789554 h -1.647445 c -0.09984,0.383603 -0.267894,0.714713 -0.504362,0.993219 -0.231213,0.278508 -0.504814,0.489088 -0.820105,0.63097 -0.310036,0.141881 -0.635636,0.212389 -0.977202,0.212389 -0.467682,0 -0.877308,-0.110024 -1.229382,-0.330729 -0.352076,-0.225957 -0.625676,-0.544068 -0.820105,-0.953944 -0.19443,-0.40988 -0.291455,-0.882526 -0.291455,-1.418519 v -3.145028 c 0,-0.54125 0.09703,-1.014412 0.291455,-1.419034 0.194429,-0.40988 0.468029,-0.727991 0.820105,-0.953948 0.352074,-0.225959 0.7617,-0.338997 1.229382,-0.338997 0.33631,0 0.66191,0.07654 0.977202,0.228925 0.315291,0.152393 0.588892,0.370462 0.820105,0.654225 0.236468,0.278506 0.40452,0.596101 0.504362,0.953429 h 1.647445 c -0.131372,-0.677876 -0.383449,-1.274062 -0.756544,-1.789036 -0.367838,-0.514977 -0.828,-0.911603 -1.37976,-1.190109 -0.55176,-0.283763 -1.155953,-0.425815 -1.81281,-0.425815 z m 9.711035,0 c -0.798737,0 -1.502968,0.176059 -2.112531,0.528135 -0.609563,0.346821 -1.082207,0.840988 -1.418519,1.482079 -0.331054,0.635836 -0.496612,1.374076 -0.496609,2.214851 v 3.247348 c -3e-6,0.840777 0.165555,1.581512 0.496609,2.222603 0.336312,0.635836 0.808956,1.130006 1.418519,1.482079 0.609563,0.346821 1.313794,0.520383 2.112531,0.520383 0.798738,0 1.502971,-0.173562 2.112534,-0.520383 0.609563,-0.352073 1.079709,-0.846243 1.410766,-1.482079 0.33631,-0.641091 0.504362,-1.381826 0.504362,-2.222603 v -3.247348 c 0,-0.840775 -0.168052,-1.579015 -0.504362,-2.214851 -0.331057,-0.641091 -0.801203,-1.135258 -1.410766,-1.482079 -0.609563,-0.352076 -1.313796,-0.528135 -2.112534,-0.528135 z m 6.471441,0.110588 v 11.468552 h 1.607654 v -4.847767 h 2.394169 l 2.445845,4.847767 h 1.907376 l -2.642732,-5.016233 c 0.199993,-0.06294 0.390401,-0.143026 0.569992,-0.241329 0.504465,-0.273251 0.89558,-0.659373 1.174088,-1.158584 0.278506,-0.504468 0.418061,-1.085157 0.418061,-1.742014 0,-0.656857 -0.139555,-1.235051 -0.418061,-1.734261 -0.273253,-0.504466 -0.661871,-0.893086 -1.166338,-1.166337 -0.499208,-0.273251 -1.0799,-0.409794 -1.742012,-0.409794 h -2.940388 z m 31.474047,0 v 11.468552 h 1.607654 v -4.847767 h 2.393651 l 2.446364,4.847767 h 1.907376 l -2.642733,-5.016233 c 0.199993,-0.06294 0.389885,-0.143026 0.569473,-0.241329 0.504468,-0.273251 0.896099,-0.659373 1.174608,-1.158584 0.278505,-0.504468 0.417544,-1.085157 0.417544,-1.742014 0,-0.656857 -0.139039,-1.235051 -0.417544,-1.734261 -0.273254,-0.504466 -0.661872,-0.893086 -1.166339,-1.166337 -0.499211,-0.273251 -1.0799,-0.409794 -1.742012,-0.409794 h -2.940388 z m -20.951176,0.0078 v 11.453 h 1.592151 v -8.430493 l 5.399154,8.430493 h 1.474327 V 31.420821 h -1.592667 v 8.559683 l -5.414656,-8.559683 z m 11.303185,0 v 11.4608 h 1.607656 5.754169 v -1.529106 h -5.754169 v -3.397211 h 4.887039 v -1.529103 h -4.887039 v -3.476274 h 5.754169 v -1.529106 h -5.754169 z m -28.297497,1.466014 c 0.472938,-3e-6 0.888072,0.107526 1.245402,0.322976 0.362585,0.210193 0.641178,0.512292 0.83561,0.906405 0.199683,0.388858 0.299204,0.841015 0.299204,1.355989 v 3.357936 c 0,0.514974 -0.09952,0.969626 -0.299204,1.363739 -0.194432,0.388858 -0.473025,0.690957 -0.83561,0.906404 -0.35733,0.210196 -0.772464,0.315227 -1.245402,0.315227 -0.472937,0 -0.890569,-0.105031 -1.253154,-0.315227 -0.35733,-0.215447 -0.635923,-0.517546 -0.835607,-0.906404 -0.194429,-0.394113 -0.291973,-0.848765 -0.291973,-1.363739 v -3.357936 c 0,-0.514974 0.09754,-0.967131 0.291973,-1.355989 0.199684,-0.394113 0.478277,-0.696212 0.835607,-0.906405 0.362585,-0.21545 0.780217,-0.322979 1.253154,-0.322976 z m 8.079095,0.05529 h 3.003433 c 0.310036,0 0.580623,0.07352 0.811837,0.220657 0.236469,0.147138 0.41752,0.357201 0.543637,0.630455 0.131371,0.267996 0.197403,0.578099 0.197403,0.930174 0,0.352076 -0.06603,0.664676 -0.197403,0.937927 -0.126117,0.267999 -0.307168,0.475565 -0.543637,0.622702 -0.236469,0.147135 -0.507055,0.220657 -0.811837,0.220657 h -3.003433 z m 31.474047,0 h 3.003433 c 0.310036,0 0.580623,0.07352 0.811837,0.220657 0.236469,0.147138 0.417521,0.357201 0.543637,0.630455 0.131371,0.267996 0.196887,0.578099 0.196887,0.930174 0,0.352076 -0.06552,0.664676 -0.196887,0.937927 -0.126116,0.267999 -0.307168,0.475565 -0.543637,0.622702 -0.236469,0.147135 -0.507055,0.220657 -0.811837,0.220657 h -3.003433 z"
       transform="matrix(1,0,0,1.7097703,51.364863,61.1994)" />
  </g>
  <g
     inkscape:groupmode="layer"
     id="g6001"
     inkscape:label="Corner #3"
     style="display:none">
    <path
       id="path5999"
       style="font-size:16.1429px;line-height:1.25;font-family:Bahnschrift;-inkscape-font-specification:Bahnschrift;display:inline;fill:#000000;fill-opacity:1;stroke-width:0.457006"
       d="M 3.9883891,-6.9379091 C 3.1937515,-7.1089296 2.4973389,-6.9210792 1.8918755,-6.3815677 1.2930046,-5.851556 0.82748307,-5.0236373 0.49661038,-3.9339409 0.16555412,-2.843638 0,-1.5663857 0,-0.11815976 0.01,1.6789267 0,5.2322295 0,5.2322295 0,6.680452 0.16555412,7.9542268 0.49661038,9.055207 0.82764037,10.156107 1.2928473,11.00792 1.8918755,11.606581 2.4971902,12.206292 3.1938992,12.5 3.9883891,12.5 4.6400436,12.5 5.241637,12.267971 5.7934484,11.821418 6.3448666,11.366665 6.8082085,10.73516 7.1809615,9.9349722 7.5539729,9.1342327 7.8062179,8.2148707 7.9375061,7.1668728 7.3980232,7.1260554 6.2900598,7.0141984 6.2900598,7.0141984 6.1902523,7.6233145 6.0221331,8.1457495 5.7856974,8.5840821 5.5545604,9.0226391 5.280807,9.3541698 4.9655918,9.574936 4.6555253,9.7959786 4.3299856,9.9027949 3.9883891,9.8929345 3.5204454,9.879427 3.1113417,9.6863208 2.7590061,9.3058178 2.4068894,8.9167207 2.1333701,8.3729423 1.9389005,7.6740697 1.7444703,6.9753347 1.6474453,6.1714016 1.6474453,5.2634806 c 0.01,-1.7624011 0,-5.32738272 0,-5.32738272 0,-0.91682691 0.09703,-1.71259948 0.2914552,-2.37970898 0.1944076,-0.6759265 0.4680509,-1.1852649 0.8201056,-1.5182349 0.352331,-0.3332367 0.7614439,-0.4570624 1.229383,-0.3698562 0.3363217,0.062678 0.661899,0.256704 0.9772027,0.5745622 0.3151516,0.3177196 0.5890322,0.7360617 0.8201056,1.2478069 0.2364075,0.5045596 0.4045811,1.0548627 0.5043624,1.65110948 0.5592586,0.13018262 1.6474463,0.37177044 1.6474463,0.37177044 C 7.8062741,-1.5783201 7.5539167,-2.5827404 7.1809615,-3.5029137 6.8137495,-4.4204201 6.3523346,-5.1924083 5.8012005,-5.7935567 5.2497807,-6.403543 4.6449059,-6.7966147 3.9883891,-6.9379091 Z m 9.7110429,3.2631469 c -0.800182,-0.3064196 -1.501525,-0.3339524 -2.112533,-0.044669 -0.610106,0.2812197 -1.081665,0.8499649 -1.41852,1.7080365 -0.3310545,0.8504366 -0.4966126,1.92796638 -0.4966096,3.2006234 0.01,1.6523077 0,4.9154145 0,4.9154145 -3e-6,1.2726594 0.1655551,2.4142567 0.4966096,3.3956952 0.336761,0.9752022 0.808508,1.7219752 1.41852,2.2439922 0.610574,0.514858 1.312785,0.755669 2.112533,0.755669 0.797483,0 1.504228,-0.239075 2.112536,-0.684198 0.609044,-0.452563 1.080228,-1.074561 1.410767,-1.862076 0.33631,-0.7951211 0.504362,-1.7067927 0.504362,-2.7634055 0.01,-1.3489758 0,-4.0809728 0,-4.0809728 0,-1.05661 -0.168052,-2.0217853 -0.504362,-2.92740071 -0.330509,-0.90927027 -0.801753,-1.69826449 -1.410767,-2.36735929 -0.607821,-0.674673 -1.31554,-1.1841503 -2.112536,-1.4893499 z m 6.471446,2.3826279 c 0.01,4.5617212 0,13.6512743 0,13.6512743 0.54599,0.0109 1.607655,0.0044 1.607655,0.0044 0.01,-1.853452 0,-5.5882512 0,-5.5882512 0.809369,0.096097 2.394171,0.224567 2.394171,0.224567 0.825445,1.8641753 2.445847,5.3727372 2.445847,5.3727372 0.645921,0.0091 1.907377,0.0015 1.907377,0.0015 -0.871088,-1.770166 -2.642734,-5.4399512 -2.642734,-5.4399512 0.199979,-0.056402 0.390416,-0.1323576 0.569993,-0.2286847 0.504316,-0.2674197 0.895729,-0.664057 1.174089,-1.1847341 0.278506,-0.526571 0.418061,-1.1394685 0.418061,-1.839343 0,-0.6998745 -0.139555,-1.3215897 -0.418061,-1.8735061 C 27.353863,1.2504696 26.965563,0.80424705 26.460937,0.45356005 25.962347,0.1040017 25.380417,-0.12429977 24.718923,-0.23607117 23.748597,-0.39145358 21.778533,-0.85675859 21.778533,-0.85675859 21.242384,-0.99137002 20.707027,-1.1368109 20.170878,-1.2921343 Z m 31.474071,-4.2120575 c 0.01,5.95210414 0,17.8203138 0,17.8203138 0.545995,0.01021 1.607655,-0.0053 1.607655,-0.0053 0.01,-2.5727786 0,-7.7516982 0,-7.7516982 0.808044,-0.093686 2.393653,-0.2767945 2.393653,-0.2767945 0.812122,2.5641326 2.446366,8.0175487 2.446366,8.0175487 C 58.738537,12.312268 60,12.298681 60,12.298681 59.128912,9.4668042 57.357265,3.8583413 57.357265,3.8583413 57.557272,3.73892 57.747138,3.5921583 57.926739,3.4157808 c 0.504536,-0.4906065 0.896032,-1.1605255 1.174609,-2.0177943 0.278505,-0.86599136 0.417544,-1.85573712 0.417544,-2.9727701 0,-1.1170329 -0.139039,-2.0988732 -0.417544,-2.9333813 -0.273117,-0.843272 -0.66201,-1.47793 -1.16634,-1.8799213 -0.499893,-0.4032715 -1.07922,-0.5402882 -1.742014,-0.404037 -0.970326,0.212455 -2.94039,0.7644033 -2.94039,0.7644033 -0.535602,0.1641731 -1.072053,0.3400067 -1.607655,0.5235281 z M 30.693757,0.21755809 c 0.01,4.05855721 0,12.14868891 0,12.14868891 0.540826,0.0081 1.592152,-8.5e-4 1.592152,-8.5e-4 0.01,-2.9924208 0,-8.9993876 0,-8.9993876 0.950526,1.5272965 2.209343,3.5465869 3.378359,5.5048837 1.120988,1.8778419 2.020799,3.4851819 2.020799,3.4851819 0.501545,0.0076 1.474328,-0.0041 1.474328,-0.0041 0.01,-4.4755006 0,-13.4461069 0,-13.4461069 -0.520996,0.15193531 -1.592668,0.40503061 -1.592668,0.40503061 0.01,3.25821729 0,9.74982619 0,9.74982619 C 36.527691,7.247857 35.45685,5.4775679 34.186179,3.4241129 33.05692,1.5991857 32.152067,0.14923496 32.152067,0.14923496 c -0.486248,0.0343672 -0.972062,0.0571819 -1.45831,0.0683231 z M 41.996951,-1.9591431 c 0.01,4.7799001 0,14.3114271 0,14.3114271 0.545997,0.0079 1.607657,-0.0057 1.607657,-0.0057 1.928443,0.0031 5.754173,-0.02203 5.754173,-0.02203 0.01,-0.744742 0,-2.26743 0,-2.26743 -1.908749,0.112799 -5.754173,0.306741 -5.754173,0.306741 0.01,-1.4596764 0,-4.4050025 0,-4.4050025 1.639279,-0.2445508 4.887043,-0.7973175 4.887043,-0.7973175 0.01,-0.7322286 0,-2.2243954 0,-2.2243954 -1.61934,0.3591592 -4.887043,1.0389974 -4.887043,1.0389974 0.01,-1.4953882 0,-4.50751993 0,-4.50751993 1.931421,-0.58763237 5.754173,-1.87128157 5.754173,-1.87128157 0.01,-0.7479411 0,-2.2674349 0,-2.2674349 -1.908441,0.7229919 -5.754173,2.1559973 -5.754173,2.1559973 -0.53631,0.1912375 -1.071347,0.3765663 -1.607657,0.554914 z m -28.297519,0.475223 c 0.472461,0.1564132 0.88855,0.4413587 1.245403,0.84231335 0.362392,0.39587519 0.641371,0.88029747 0.835611,1.4525627 0.199683,0.56738525 0.299204,1.18185355 0.299204,1.85463065 0.01,1.4744711 0,4.3869054 0,4.3869054 0,0.6727766 -0.09952,1.2544062 -0.299204,1.7553711 C 15.5862,9.3018996 15.307233,9.683105 14.944835,9.950062 14.587896,10.210143 14.171979,10.333671 13.699432,10.309161 13.226167,10.284613 12.80919,10.117312 12.446277,9.7950591 12.088782,9.4657951 11.810518,9.0106218 11.610669,8.4274368 11.41624,7.8375894 11.318696,7.1607264 11.318696,6.4084038 c 0.01,-1.62209 0,-4.9055929 0,-4.9055929 0,-0.75232319 0.09754,-1.38838861 0.291973,-1.89625775 0.199875,-0.5144612 0.478087,-0.86267705 0.835608,-1.04699805 0.363007,-0.1902364 0.779796,-0.2001939 1.253155,-0.043475 z m 8.079101,2.38983154 c 1.011345,0.22939946 3.003435,0.54797136 3.003435,0.54797136 0.309953,0.044952 0.580708,0.1611404 0.811838,0.3490138 0.236475,0.1885831 0.417514,0.4354037 0.543637,0.7434123 0.131372,0.3028328 0.197404,0.6429862 0.197404,1.0228945 0,0.3799092 -0.06603,0.7117951 -0.197404,0.9967815 -0.126064,0.2796088 -0.307221,0.4905752 -0.543637,0.6310339 -0.236344,0.1404136 -0.50718,0.1980466 -0.811838,0.1695129 C 23.790623,5.2822489 21.778533,5.0126574 21.778533,5.0126574 Z M 53.252604,-3.5826464 c 1.011346,-0.2566184 3.003436,-0.6747028 3.003436,-0.6747028 0.310118,-0.054614 0.580541,0.025726 0.811837,0.2402357 0.236459,0.2136853 0.417531,0.5457453 0.543638,0.9925125 0.131371,0.4373535 0.196887,0.9551126 0.196887,1.5495971 0,0.59448587 -0.06552,1.1280945 -0.196887,1.60045688 C 57.485358,0.58864156 57.304386,0.95378904 57.067877,1.2236605 56.83131,1.4935955 56.56092,1.6436037 56.25604,1.6782771 55.264694,1.8040136 53.252604,2.1139932 53.252604,2.1139932 Z"
       inkscape:path-effect="#path-effect6186"
       inkscape:original-d="M 3.9883891,0 C 3.1949065,0 2.4961839,0.2289686 1.8918755,0.687179 1.292822,1.1386558 0.82766563,1.7787464 0.49661038,2.6075724 0.16555412,3.4364024 0,4.3971967 0,5.4888243 V 9.521781 c 0,1.091625 0.16555412,2.05176 0.49661038,2.880586 C 0.82766563,13.231196 1.292822,13.871284 1.8918755,14.32276 2.4961829,14.774237 3.1949065,15 3.9883891,15 4.6399916,15 5.241689,14.821045 5.7934484,14.463906 6.3452079,14.100032 6.8078672,13.588224 7.1809615,12.927858 7.5540568,12.267493 7.806134,11.502322 7.9375061,10.633064 H 6.2900598 c -0.09984,0.491905 -0.2678942,0.916496 -0.5043624,1.273632 -0.2312131,0.357139 -0.5048143,0.627171 -0.8201056,0.80911 -0.3100362,0.181938 -0.6356365,0.272353 -0.9772027,0.272353 -0.4676824,0 -0.8773087,-0.141087 -1.229383,-0.424103 C 2.4069299,12.274305 2.1333296,11.866382 1.9389005,11.340787 1.7444703,10.815186 1.6474453,10.209099 1.6474453,9.521781 V 5.4888243 c 0,-0.69406 0.09703,-1.3008086 0.2914552,-1.8196667 0.1944291,-0.5256005 0.4680294,-0.933523 0.8201056,-1.223274 0.3520743,-0.2897534 0.7617006,-0.4347052 1.229383,-0.4347052 0.3363102,0 0.6619105,0.09815 0.9772027,0.2935569 0.3152913,0.1954178 0.5888925,0.4750538 0.8201056,0.8389309 0.2364682,0.357136 0.4045204,0.7643968 0.5043624,1.2226084 H 7.9375061 C 7.806134,3.4970154 7.5540568,2.7325096 7.1809615,2.0721442 6.8131232,1.4117749 6.3529609,0.9031705 5.8012005,0.5460345 5.24944,0.1821574 4.6452466,0 3.9883891,0 Z M 13.699432,0 C 12.900694,0 12.196463,0.2257653 11.586899,0.6772422 10.977336,1.1219803 10.504691,1.7556644 10.168379,2.5777532 9.8373245,3.3931033 9.6717664,4.3397689 9.6717694,5.417918 v 4.164164 c -3e-6,1.078152 0.1655551,2.028017 0.4966096,2.850106 0.336312,0.81535 0.808957,1.449037 1.41852,1.90051 C 12.196463,14.777436 12.900694,15 13.699432,15 c 0.798739,0 1.502972,-0.222564 2.112536,-0.667302 0.609563,-0.451473 1.079709,-1.08516 1.410767,-1.90051 0.33631,-0.822089 0.504362,-1.771954 0.504362,-2.850106 V 5.417918 c 0,-1.0781491 -0.168052,-2.0248147 -0.504362,-2.8401648 C 16.891677,1.7556644 16.421531,1.1219803 15.811968,0.6772422 15.202404,0.2257653 14.498171,0 13.699432,0 Z m 6.471446,0.1418102 V 14.848252 h 1.607655 V 8.631826 h 2.394171 l 2.445847,6.216426 h 1.907377 L 25.883194,8.415797 c 0.199993,-0.08071 0.390402,-0.183406 0.569993,-0.309462 0.504465,-0.3503977 0.89558,-0.8455327 1.174089,-1.4856848 0.278506,-0.6468932 0.418061,-1.3915267 0.418061,-2.2338327 0,-0.842306 -0.139555,-1.5837401 -0.418061,-2.223891 C 27.354022,1.5160358 26.965404,1.0176977 26.460937,0.6673004 25.961728,0.3169031 25.381036,0.1418102 24.718923,0.1418102 h -2.94039 z m 31.474071,0 V 14.848252 h 1.607655 V 8.631826 h 2.393653 l 2.446366,6.216426 H 60 L 57.357265,8.415797 c 0.199994,-0.08071 0.389886,-0.183406 0.569474,-0.309462 0.504468,-0.3503977 0.8961,-0.8455327 1.174609,-1.4856848 0.278505,-0.6468932 0.417544,-1.3915267 0.417544,-2.2338327 0,-0.842306 -0.139039,-1.5837401 -0.417544,-2.223891 C 58.828094,1.5160358 58.439475,1.0176977 57.935008,0.6673004 57.435796,0.3169031 56.855107,0.1418102 56.192994,0.1418102 h -2.94039 z m -20.951192,0.01 V 14.838306 h 1.592152 V 4.0276568 l 5.399158,10.8106542 h 1.474328 V 0.1517508 H 37.566727 V 11.128069 L 32.152067,0.1517508 Z m 11.303194,0 V 14.848309 h 1.607657 5.754173 v -1.96081 H 43.604608 V 8.531161 h 4.887043 V 6.5703498 H 43.604608 V 2.1126272 h 5.754173 V 0.1518123 H 43.604608 Z M 13.699432,2.0317227 c 0.472938,-3.9e-6 0.888073,0.1378843 1.245403,0.4141609 0.362585,0.2695365 0.641178,0.6569264 0.835611,1.1623084 0.199683,0.4986434 0.299204,1.0784567 0.299204,1.7388223 V 9.652989 c 0,0.660365 -0.09952,1.243378 -0.299204,1.74876 -0.194433,0.498643 -0.473026,0.886033 -0.835611,1.162307 -0.35733,0.26954 -0.772465,0.404224 -1.245403,0.404224 -0.472937,0 -0.89057,-0.134685 -1.253155,-0.404224 -0.35733,-0.276274 -0.635924,-0.663664 -0.835608,-1.162307 -0.194429,-0.505382 -0.291973,-1.088395 -0.291973,-1.74876 V 5.3470143 c 0,-0.6603656 0.09754,-1.2401789 0.291973,-1.7388223 0.199684,-0.505382 0.478278,-0.8927719 0.835608,-1.1623084 0.362585,-0.2762774 0.780218,-0.4141648 1.253155,-0.4141609 z m 8.079101,0.070899 h 3.003435 c 0.310037,0 0.580624,0.094277 0.811838,0.2829546 0.236469,0.1886791 0.41752,0.4580487 0.543637,0.8084499 0.131372,0.3436586 0.197404,0.7413122 0.197404,1.1927879 0,0.4514767 -0.06603,0.8523324 -0.197404,1.2027297 -0.126117,0.3436625 -0.307168,0.6098302 -0.543637,0.7985081 -0.236469,0.1886752 -0.507055,0.2829545 -0.811838,0.2829545 h -3.003435 z m 31.474071,0 h 3.003436 c 0.310036,0 0.580623,0.094277 0.811837,0.2829546 0.236469,0.1886791 0.417521,0.4580487 0.543638,0.8084499 0.131371,0.3436586 0.196887,0.7413122 0.196887,1.1927879 0,0.4514767 -0.06552,0.8523324 -0.196887,1.2027297 -0.126117,0.3436625 -0.307169,0.6098302 -0.543638,0.7985081 -0.236469,0.1886752 -0.507055,0.2829545 -0.811837,0.2829545 h -3.003436 z"
       transform="translate(70,116.99322)" />
  </g>
  <g
     inkscape:groupmode="layer"
     id="layer6"
     inkscape:label="Corner #5 (TtP)"
     style="display:inline">
    <g
       aria-label="CORNER"
       id="text7547"
       style="font-size:13.8005px;line-height:1.25;font-family:Bahnschrift;-inkscape-font-specification:Bahnschrift;letter-spacing:1.05833px;stroke-width:0.345014"
       transform="matrix(1.3313109,0,0,1.3313109,145.47909,-12.781774)"
       inkscape:export-filename="E:\Dropbox\Z - Workspace\Cab Cal Webside\logo.png"
       inkscape:export-xdpi="609.60004"
       inkscape:export-ydpi="609.60004">
      <path
         d="m -58.668683,101.48899 q -0.891514,-0.49045 -1.352864,-1.25955 -0.455445,-0.765845 -0.427893,-1.696671 0.02755,-0.930826 0.553733,-1.887285 l 1.295965,-2.355723 q 0.526181,-0.956459 1.297646,-1.478033 0.771464,-0.521574 1.662146,-0.546871 0.899834,-0.02795 1.791348,0.4625 0.738008,0.406004 1.182541,1.065868 0.447782,0.653959 0.542759,1.459919 0.100882,0.809209 -0.170513,1.652035 v 0 l -1.23395,-0.678839 v 0 q 0.108689,-0.463189 0.01515,-0.922266 -0.08438,-0.461733 -0.344436,-0.827833 -0.260052,-0.3661 -0.637912,-0.573974 -0.525462,-0.289075 -1.0607,-0.252819 -0.535238,0.03626 -1.007035,0.376597 -0.468549,0.334436 -0.803096,0.942555 l -1.295965,2.355723 q -0.3313,0.602214 -0.366196,1.182909 -0.0349,0.580694 0.221011,1.052187 0.259155,0.465591 0.784617,0.754661 0.383765,0.21113 0.819802,0.24335 0.44194,0.0355 0.873865,-0.13453 0.437829,-0.16675 0.787113,-0.536039 v 0 l 1.23395,0.678839 v 0 q -0.566598,0.68042 -1.304094,1.02841 -0.737496,0.34799 -1.532817,0.32577 -0.792073,-0.0281 -1.524177,-0.43089 z"
         id="path22591" />
      <path
         d="m -50.055564,105.16774 q -0.975131,-0.3134 -1.583229,-0.97598 -0.606037,-0.669 -0.767137,-1.57721 -0.152622,-0.91257 0.177271,-1.93903 l 0.849475,-2.643115 q 0.329893,-1.026454 0.983541,-1.672815 0.662125,-0.650714 1.542386,-0.834953 0.882322,-0.190656 1.857453,0.122743 0.975132,0.313399 1.581168,0.982399 0.608099,0.662585 0.760721,1.575152 0.1611,0.908213 -0.168793,1.934669 l -0.849475,2.64312 q -0.329893,1.02645 -0.992019,1.67717 -0.653648,0.64636 -1.53597,0.83701 -0.88026,0.18424 -1.855392,-0.12916 z m 0.414429,-1.28948 q 0.57738,0.18556 1.096097,0.0692 0.527193,-0.12077 0.917136,-0.51921 0.398421,-0.4028 0.60048,-1.03151 l 0.878341,-2.732932 q 0.20206,-0.628704 0.110852,-1.181788 -0.08273,-0.557438 -0.442915,-0.956318 -0.351708,-0.403234 -0.929088,-0.588799 -0.577381,-0.185565 -1.104574,-0.0648 -0.518716,0.116409 -0.917137,0.519209 -0.389943,0.398448 -0.592003,1.027151 l -0.87834,2.732927 q -0.20206,0.62871 -0.11933,1.18615 0.09121,0.55308 0.442915,0.95631 0.360185,0.39888 0.937566,0.58445 z"
         id="path22593" />
      <path
         d="m -42.447685,101.41304 3.321783,0.36984 q 0.388434,0.0433 0.710684,-0.11072 0.32225,-0.15396 0.521009,-0.47762 0.206203,-0.32961 0.256161,-0.77832 v 0 q 0.04996,-0.448709 -0.07944,-0.808905 -0.121957,-0.366147 -0.40245,-0.587221 -0.273797,-0.220329 -0.668928,-0.264322 l -3.321783,-0.369843 0.144656,-1.299245 3.268206,0.363877 q 0.84384,0.09395 1.441295,0.51304 0.604152,0.419834 0.880821,1.101533 0.284112,0.675749 0.190905,1.512896 v 0 q -0.09321,0.83714 -0.519737,1.44054 -0.425785,0.59671 -1.107485,0.87338 -0.675002,0.27742 -1.512145,0.18421 l -3.268206,-0.36388 z m -0.114356,-4.392719 1.366217,0.152112 -1.08492,9.744347 -1.366218,-0.15212 z m 2.655323,5.685869 1.39382,-0.1567 1.964908,5.00556 -1.620708,-0.18044 z"
         id="path22595" />
      <path
         d="m -34.560369,97.797036 1.240808,-0.120312 5.4997,7.076366 -0.144062,0.18999 -0.747881,-7.713133 1.354828,-0.131367 0.944932,9.74537 -1.254222,0.12161 -5.47523,-6.96364 0.144061,-0.189989 0.736826,7.599109 -1.354828,0.13137 z"
         id="path22597" />
      <path
         d="m -25.848687,96.726899 1.314942,-0.400766 2.856446,9.372187 -1.314943,0.40077 z m 3.113458,7.927211 5.38224,-1.64039 0.381122,1.25048 -5.382241,1.6404 z m -1.22784,-4.02862 4.673203,-1.424293 0.381121,1.250483 -4.673202,1.42429 z m -1.247484,-4.09308 5.38224,-1.640394 0.381121,1.250485 -5.38224,1.640393 z"
         id="path22599" />
      <path
         d="m -16.208552,98.00454 2.950395,-1.570413 q 0.345006,-0.183637 0.52403,-0.492668 0.179025,-0.309032 0.160312,-0.688387 -0.01593,-0.388469 -0.228063,-0.787011 v 0 q -0.212132,-0.398541 -0.522315,-0.622754 -0.307402,-0.233328 -0.663731,-0.257406 -0.350381,-0.02724 -0.701335,0.15956 l -2.950395,1.570412 -0.614234,-1.153985 2.902808,-1.545083 q 0.749496,-0.398936 1.479231,-0.390405 0.735685,0.0054 1.348951,0.411769 0.616049,0.39729 1.011818,1.140837 v 0 q 0.395769,0.743547 0.384456,1.482397 -0.01448,0.732902 -0.420883,1.346169 -0.400456,0.6101 -1.144003,1.005869 l -2.902808,1.545084 z m -2.574742,-3.560864 1.213469,-0.645896 4.606755,8.65489 -1.213469,0.64589 z m 5.402056,3.193375 1.061878,-0.916355 4.4481009,3.021745 -1.4395073,0.766209 z"
         id="path22601" />
    </g>
  </g>
  <g
     inkscape:groupmode="layer"
     id="layer7"
     inkscape:label="Corner #5 (TtP) 1">
    <circle
       style="fill:#d45500;fill-opacity:0.317757;fill-rule:evenodd;stroke-width:0.627354"
       id="path7307"
       cx="-17.667576"
       cy="-100.22605"
       r="50"
       transform="rotate(-125)" />
    <g
       aria-label="CAB'S"
       id="text23609"
       style="font-size:21.6148px;line-height:1.25;font-family:Arial;-inkscape-font-specification:Arial;letter-spacing:-0.661458px;display:inline;stroke-width:0.540372"
       transform="matrix(0.85093945,0,0,0.85093945,161.38883,64.673628)"
       inkscape:export-filename="E:\Dropbox\Z - Workspace\Cab Cal Webside\logo.png"
       inkscape:export-xdpi="609.60004"
       inkscape:export-ydpi="609.60004">
      <path
         d="m -91.917796,20.006659 2.066172,-0.436596 q 0.531861,2.548383 -0.389859,4.480965 -0.916887,1.91846 -3.087197,2.981995 -2.246129,1.100689 -4.104101,0.882859 -1.853139,-0.231951 -3.442269,-1.604052 -1.57966,-1.376744 -2.55495,-3.366985 -1.06354,-2.17031 -1.02853,-4.185508 0.0398,-2.02932 1.15699,-3.611051 1.12199,-1.595853 2.9606,-2.496839 2.08501,-1.021737 4.026767,-0.656914 1.941758,0.364823 3.443705,2.014711 l -1.60118,1.313534 q -1.226425,-1.279517 -2.484758,-1.520869 -1.258332,-0.241353 -2.651501,0.441353 -1.601673,0.78488 -2.305903,2.08199 -0.69475,1.292465 -0.49445,2.804496 0.19567,1.502554 0.86908,2.876768 0.86848,1.772262 2.030451,2.848299 1.166806,1.061916 2.577154,1.181762 1.410347,0.119847 2.68031,-0.502484 1.544806,-0.757014 2.179185,-2.172685 0.634379,-1.415671 0.154284,-3.354749 z"
         id="path28610" />
      <path
         d="m -87.45881,23.855842 3.283291,-16.2455945 2.175027,-0.3672116 8.819848,14.2022111 -2.299909,0.388296 -2.559672,-4.320185 -6.379385,1.077036 -0.895394,4.903507 z m 3.344378,-7.008118 5.172192,-0.873225 -2.305583,-3.956352 q -1.053522,-1.802273 -1.616436,-2.9809476 -0.04366,1.5165586 -0.330181,3.0527136 z"
         id="path28612" />
      <path
         d="m -72.206233,21.642201 1.661915,-15.3827991 5.771173,0.6235017 q 1.762831,0.1904514 2.771614,0.7771359 1.02041,0.577325 1.513085,1.6177953 0.504302,1.0311112 0.389804,2.0909082 -0.106562,0.986346 -0.735799,1.799453 -0.629237,0.813106 -1.767836,1.231487 1.351362,0.560002 1.989806,1.626837 0.648937,1.067967 0.503831,2.411077 -0.116765,1.080783 -0.679352,1.964784 -0.550961,0.874641 -1.276931,1.305754 -0.725969,0.431113 -1.772135,0.583476 -1.034539,0.143003 -2.503565,-0.01571 z m 2.999243,-8.69916 3.326294,0.359364 q 1.353603,0.14624 1.960485,0.03134 0.801425,-0.146958 1.247483,-0.640158 0.456551,-0.492067 0.543841,-1.300031 0.08276,-0.765992 -0.22215,-1.382787 -0.303773,-0.6272877 -0.963148,-0.9108351 -0.658241,-0.2940404 -2.316141,-0.4731554 l -3.074462,-0.3321564 z m -0.767474,7.103789 3.82996,0.413779 q 0.986346,0.106562 1.393017,0.07619 0.716638,-0.04996 1.220567,-0.292754 0.503928,-0.242792 0.868309,-0.766047 0.365515,-0.533749 0.44487,-1.268262 0.09296,-0.860429 -0.279731,-1.537624 -0.371556,-0.687689 -1.131327,-1.024545 -0.748144,-0.346215 -2.217169,-0.504925 l -3.557141,-0.384303 z"
         id="path28614" />
      <path
         d="m -56.026115,14.116653 0.329314,-2.913742 0.711792,-2.4858564 2.080002,0.5955816 -0.711792,2.4858558 -1.283071,2.640647 z"
         id="path28616" />
      <path
         d="m -53.587375,19.773188 1.811953,0.689676 q -0.382428,1.104709 -0.26251,1.995321 0.134016,0.885712 0.881575,1.763605 0.752158,0.868394 1.939565,1.443301 1.054418,0.510517 2.01363,0.587978 0.959212,0.07746 1.610839,-0.275427 0.665726,-0.357788 0.978475,-1.003738 0.317349,-0.655448 0.171941,-1.323881 -0.140809,-0.677931 -0.853767,-1.433537 -0.454673,-0.489839 -2.152759,-1.874853 -1.693487,-1.394513 -2.265159,-2.175521 -0.744463,-1.005381 -0.865885,-2.013982 -0.107323,-1.013501 0.357202,-1.972926 0.510517,-1.054418 1.550499,-1.676594 1.044581,-0.631675 2.423954,-0.550128 1.379373,0.08155 2.785263,0.762237 1.548379,0.749679 2.482527,1.823447 0.948246,1.068868 1.115572,2.345943 0.167326,1.277074 -0.378481,2.525475 l -1.831252,-0.722472 q 0.496808,-1.389386 -0.0031,-2.463968 -0.490389,-1.069984 -2.095763,-1.847258 -1.67187,-0.809469 -2.740261,-0.564557 -1.054293,0.240012 -1.472825,1.104445 -0.363342,0.750441 -0.05645,1.497061 0.297396,0.742021 2.290862,2.340405 2.007563,1.593484 2.659528,2.378189 0.944549,1.149161 1.105471,2.294148 0.165522,1.135488 -0.37719,2.2564 -0.538113,1.111413 -1.652886,1.791186 -1.110173,0.670273 -2.573837,0.641724 -1.449565,-0.03345 -2.940948,-0.755532 -1.890353,-0.915252 -2.905996,-2.087108 -1.006143,-1.167258 -1.204073,-2.623314 -0.18383,-1.460957 0.454263,-2.875745 z"
         id="path28618" />
    </g>
    <path
       style="display:inline;fill:#000000;fill-opacity:1;stroke:none;stroke-width:0.4;stroke-linecap:butt;stroke-linejoin:miter;stroke-miterlimit:4;stroke-dasharray:none;stroke-opacity:1"
       d="M 100,94.4 80,108 100,92 120,108"
       id="path26536-7"
       sodipodi:nodetypes="cccc"
       inkscape:export-filename="E:\Dropbox\Z - Workspace\Cab Cal Webside\logo.png"
       inkscape:export-xdpi="609.60004"
       inkscape:export-ydpi="609.60004" />
    <text
       xml:space="preserve"
       style="font-size:10.5833px;line-height:1.25;font-family:Bahnschrift;-inkscape-font-specification:Bahnschrift;stroke-width:0.264583"
       id="text29368"
       y="1.5875"
       x="-102.12917"><tspan
         sodipodi:role="line"
         id="tspan29366"
         style="stroke-width:0.264583"
         x="-102.12917"
         y="1.5875">Test Text</tspan></text>
  </g>
  <g
     inkscape:groupmode="layer"
     id="layer2"
     inkscape:label="Rounded Text (TtP"
     style="display:none">
    <text
       xml:space="preserve"
       style="font-style:normal;font-weight:normal;font-size:17.1657px;line-height:1.25;font-family:sans-serif;letter-spacing:2.64583px;fill:#000000;fill-opacity:1;stroke:none;stroke-width:0.429143"
       id="text1486"
       inkscape:transform-center-x="0.12647763"
       inkscape:transform-center-y="47.642935"
       transform="rotate(131.88896,106.14411,86.239523)"><textPath
         xlink:href="#path24752"
         id="textPath24835"><tspan
           style="stroke-width:0.429143"
           id="tspan1488">CORNER</tspan></textPath></text>
    <circle
       style="fill:none;fill-opacity:1;fill-rule:evenodd;stroke:#000000;stroke-width:0.253161;stroke-opacity:1"
       id="path24752"
       cx="100"
       cy="-100"
       r="59.873421"
       transform="scale(1,-1)" />
  </g>
</svg>
